Coordinates
version=1
nRows=21
nColumns=38
inDegrees=no

Units are S.I. units (second, meters, Newtons, ...)
If the header above contains a line with 'inDegrees', this indicates whether rotational values are in degrees (yes) or radians (no).

endheader
time	pelvis_tilt	pelvis_list	pelvis_rotation	pelvis_tx	pelvis_ty	pelvis_tz	hip_flexion_r	hip_adduction_r	hip_rotation_r	knee_angle_r	ankle_angle_r	subtalar_angle_r	mtp_angle_r	hip_flexion_l	hip_adduction_l	hip_rotation_l	knee_angle_l	ankle_angle_l	subtalar_angle_l	mtp_angle_l	lumbar_extension	lumbar_bending	lumbar_rotation	arm_flex_r	arm_add_r	arm_rot_r	elbow_flex_r	pro_sup_r	wrist_flex_r	wrist_dev_r	arm_flex_l	arm_add_l	arm_rot_l	elbow_flex_l	pro_sup_l	wrist_flex_l	wrist_dev_l
0	-3.09735	1.30294	-1.57281	0.846138	-0.429062	0.954554	0.475096	-0.24673	-0.0720147	1.41446	0.201243	0	0	-0.241859	-0.0208513	-0.208118	0.266505	0.0813838	0	0	-0.383584	-0.0374939	0.106469	0.274917	-0.384933	-0.131561	1.50641	0	0	0	0.398881	-0.507501	0.0585583	1.52656	0.992526	0	0
0.01	-3.09433	1.30488	-1.5722	0.846918	-0.421255	0.954693	0.477621	-0.248022	-0.0816893	1.36545	0.203342	0	0	-0.256603	-0.0200001	-0.201803	0.251152	0.081802	0	0	-0.383336	-0.0350672	0.103003	0.276216	-0.387469	-0.128244	1.50553	0	0	0	0.398896	-0.50718	0.0529551	1.5289	0.99061	0	0
0.02	-3.0892	1.30974	-1.57399	0.847962	-0.412657	0.954357	0.48021	-0.251127	-0.0949649	1.31316	0.206176	0	0	-0.271435	-0.0185695	-0.195626	0.23161	0.0805844	0	0	-0.387417	-0.0312611	0.0889696	0.284137	-0.386233	-0.116684	1.51423	0	0	0	0.379715	-0.515481	0.03581	1.55088	0.976522	0	0
0.03	-3.08775	1.31329	-1.57184	0.848855	-0.40465	0.954124	0.478669	-0.253045	-0.109918	1.25466	0.206277	0	0	-0.287161	-0.0180813	-0.188282	0.212041	0.0783339	0	0	-0.38521	-0.0282024	0.0859812	0.284911	-0.389304	-0.113462	1.51302	0	0	0	0.380448	-0.515361	0.0397148	1.54886	0.963963	0	0
0.04	-3.08288	1.31685	-1.57269	0.84968	-0.396633	0.953718	0.47408	-0.256225	-0.126466	1.19128	0.20497	0	0	-0.304126	-0.0165396	-0.178646	0.189789	0.0760141	0	0	-0.383282	-0.0256496	0.081985	0.286284	-0.392895	-0.109223	1.51222	0	0	0	0.379423	-0.514739	0.0353478	1.54941	0.957937	0	0
0.05	-3.07597	1.32167	-1.57577	0.850672	-0.388544	0.952933	0.468231	-0.2596	-0.144308	1.12382	0.203625	0	0	-0.319594	-0.0151819	-0.170345	0.168337	0.0761975	0	0	-0.380185	-0.0238297	0.0787946	0.287323	-0.398032	-0.103661	1.51202	0	0	0	0.379466	-0.514207	0.033628	1.54922	0.958522	0	0
0.06	-3.06917	1.32788	-1.57891	0.851828	-0.38043	0.951785	0.46121	-0.262087	-0.163205	1.05253	0.20307	0	0	-0.33314	-0.0144909	-0.16231	0.147976	0.0767187	0	0	-0.375552	-0.0220083	0.0750616	0.289431	-0.402703	-0.0975115	1.51025	0	0	0	0.378819	-0.51415	0.0331565	1.5488	0.961646	0	0
0.07	-3.04962	1.34882	-1.59187	0.853587	-0.371565	0.950149	0.465516	-0.265043	-0.183198	0.975017	0.201259	0	0	-0.329062	-0.013639	-0.148498	0.130274	0.0740661	0	0	-0.345807	-0.0333954	0.0569778	0.289318	-0.395208	-0.0845773	1.4795	0	0	0	0.366551	-0.5223	0.0291997	1.55312	0.967071	0	0
0.08	-3.03604	1.35588	-1.60241	0.855043	-0.363327	0.948483	0.454503	-0.26664	-0.204023	0.895867	0.200713	0	0	-0.341119	-0.0127151	-0.140113	0.111545	0.0746209	0	0	-0.340444	-0.0335829	0.0545744	0.290382	-0.399568	-0.081156	1.4804	0	0	0	0.367964	-0.523709	0.0351603	1.55227	0.969323	0	0
0.09	-3.01291	1.36415	-1.62305	0.85673	-0.355064	0.94645	0.443879	-0.267687	-0.221536	0.81532	0.20244	0	0	-0.349484	-0.0107187	-0.134826	0.0974659	0.0774334	0	0	-0.33398	-0.0360645	0.0525289	0.2911	-0.403273	-0.0782817	1.48418	0	0	0	0.369308	-0.52443	0.0390718	1.55235	0.967057	0	0
0.1	-2.99172	1.37079	-1.64129	0.858501	-0.346716	0.944493	0.427135	-0.265841	-0.239206	0.728021	0.201917	0	0	-0.361432	-0.00958262	-0.124128	0.0793453	0.0773036	0	0	-0.329467	-0.0377392	0.0499015	0.293554	-0.406505	-0.0750729	1.4831	0	0	0	0.369523	-0.523559	0.0363543	1.55343	0.952652	0	0
0.11	-2.95908	1.38005	-1.67203	0.860644	-0.338241	0.94196	0.414065	-0.263141	-0.250681	0.643233	0.20038	0	0	-0.367619	-0.00749951	-0.117957	0.0668621	0.080746	0	0	-0.321608	-0.0419389	0.0483948	0.294733	-0.408592	-0.0730225	1.48397	0	0	0	0.370154	-0.524048	0.0357964	1.55256	0.956968	0	0
0.12	-2.92953	1.38819	-1.6996	0.862986	-0.329631	0.939364	0.397587	-0.257096	-0.257482	0.558512	0.194383	0	0	-0.374344	-0.00709075	-0.111748	0.0560441	0.0852161	0	0	-0.314777	-0.045047	0.0470681	0.29598	-0.41049	-0.0711694	1.4847	0	0	0	0.370858	-0.525276	0.0371201	1.55188	0.964272	0	0
0.13	-2.9019	1.39552	-1.72517	0.865463	-0.320915	0.936737	0.379506	-0.248903	-0.258066	0.478257	0.185134	0	0	-0.380724	-0.00785331	-0.106683	0.0478291	0.091185	0	0	-0.308574	-0.0473044	0.0459972	0.296972	-0.412283	-0.0698556	1.48557	0	0	0	0.371544	-0.525489	0.0377831	1.55194	0.959935	0	0
0.14	-2.8743	1.4024	-1.75028	0.868065	-0.311939	0.934071	0.36067	-0.239947	-0.253661	0.405416	0.17408	0	0	-0.386685	-0.0094015	-0.101834	0.0416055	0.0983517	0	0	-0.301984	-0.0489729	0.0447705	0.297303	-0.413647	-0.0688533	1.48658	0	0	0	0.371741	-0.524714	0.0357142	1.55064	0.961102	0	0
0.15	-2.8566	1.40745	-1.76475	0.870773	-0.302635	0.931604	0.336914	-0.228574	-0.243814	0.336807	0.159939	0	0	-0.394203	-0.0131891	-0.0981219	0.0372061	0.105906	0	0	-0.296728	-0.0488897	0.0438213	0.296586	-0.414688	-0.0693867	1.48818	0	0	0	0.372416	-0.523867	0.0355253	1.54822	0.961501	0	0
0.16	-2.83032	1.41267	-1.78678	0.873459	-0.293041	0.928952	0.318285	-0.221555	-0.238182	0.289538	0.150687	0	0	-0.39965	-0.0165213	-0.0952665	0.0361809	0.113931	0	0	-0.290171	-0.0501026	0.0424977	0.294296	-0.415338	-0.0713989	1.49122	0	0	0	0.373643	-0.52328	0.0402903	1.5457	0.95841	0	0
0.17	-2.8146	1.41546	-1.79673	0.876116	-0.283116	0.926616	0.294563	-0.213415	-0.230731	0.249825	0.139402	0	0	-0.407267	-0.0222781	-0.0926623	0.0370589	0.122371	0	0	-0.286558	-0.0493505	0.038108	0.294569	-0.414968	-0.0717394	1.49114	0	0	0	0.368718	-0.513581	-0.0257177	1.55792	0.608984	0	0
0.18	-2.80668	1.41565	-1.79727	0.87871	-0.272986	0.924589	0.268907	-0.20597	-0.227278	0.223494	0.128247	0	0	-0.415879	-0.0297236	-0.0906638	0.0415716	0.131916	0	0	-0.284601	-0.0479068	0.0373056	0.289819	-0.415752	-0.0788732	1.49426	0	0	0	0.376936	-0.51868	0.0481963	1.53396	1.00071	0	0
0.19	-2.84691	1.39876	-1.75233	0.880843	-0.263286	0.923183	0.228196	-0.196505	-0.23221	0.212519	0.126	0	0	-0.445473	-0.0398895	-0.0955097	0.0451605	0.143901	0	0	-0.312208	-0.0302416	0.0479902	0.289304	-0.425325	-0.0968655	1.52954	0	0	0	0.388479	-0.507316	0.0510106	1.52747	0.996845	0	0
0.2	-2.84991	1.396	-1.74009	0.883555	-0.252871	0.921657	0.202533	-0.189074	-0.242847	0.200698	0.123931	0	0	-0.451983	-0.0510946	-0.097114	0.0598132	0.15491	0	0	-0.314643	-0.0269085	0.0438678	0.287253	-0.424624	-0.102282	1.531	0	0	0	0.387364	-0.5039	0.0458347	1.52859	0.991155	0	0
